<?xml version="1.0" encoding="UTF-8"?>
<svg width="109px" height="57px" viewBox="0 0 109 57" version="1.1" xmlns="http://www.w3.org/2000/svg" xmlns:xlink="http://www.w3.org/1999/xlink">
    <title>Group 3</title>
    <g id="Page-1" stroke="none" stroke-width="1" fill="none" fill-rule="evenodd">
        <g id="Group-3" transform="translate(0.008000, 0.518066)" fill-rule="nonzero">
            <g id="NiET" transform="translate(0.604793, 0.000000)">
                <polygon id="Path" fill="#F3F2EE" points="28.6391602 35.4819336 21.2700195 35.4819336 6.86669922 10.4316406 6.86669922 35.4819336 0 35.4819336 0 0.215332031 7.72802734 0.215332031 21.7724609 24.8349609 21.7724609 0.215332031 28.6391602 0.215332031"></polygon>
                <polygon id="Path" fill="#F3F2EE" points="42.9658203 9.40283203 42.9658203 35.4819336 36.0512695 35.4819336 36.0512695 9.40283203"></polygon>
                <polygon id="Path" fill="#02AFCF" points="42.9658203 0 42.9658203 6.29248047 36.0512695 6.29248047 36.0512695 0"></polygon>
                <polygon id="Path" fill="#F3F2EE" points="74.5674805 20.0737305 57.4366211 20.0737305 57.4366211 29.1416016 76.9600586 29.1416016 76.9600586 35.4819336 50.2349609 35.4819336 50.2349609 0.215332031 76.0987305 0.215332031 76.0987305 6.45996094 57.4366211 6.45996094 57.4366211 13.9487305 74.5674805 13.9487305"></polygon>
                <polygon id="Path" fill="#F3F2EE" points="108.226758 0.215332031 108.226758 6.45996094 97.6754883 6.45996094 97.6754883 35.4819336 90.2584961 35.4819336 90.2584961 6.45996094 79.659375 6.45996094 79.659375 0.215332031"></polygon>
            </g>
            <g id="development" transform="translate(-0.000000, 39.521934)" fill="#F3F2EE">
                <path d="M7.488,8.262 C7.488,7.734 7.416,7.233 7.272,6.759 C7.128,6.285 6.921,5.871 6.651,5.517 C6.381,5.163 6.051,4.881 5.661,4.671 C5.271,4.461 4.83,4.356 4.338,4.356 C3.774,4.356 3.288,4.467 2.88,4.689 C2.472,4.911 2.136,5.214 1.872,5.598 C1.608,5.982 1.416,6.429 1.296,6.939 C1.176,7.449 1.128,7.998 1.152,8.586 C1.152,9.174 1.233,9.693 1.395,10.143 C1.557,10.593 1.782,10.974 2.07,11.286 C2.358,11.598 2.694,11.835 3.078,11.997 C3.462,12.159 3.882,12.24 4.338,12.24 C4.842,12.24 5.292,12.138 5.688,11.934 C6.084,11.73 6.414,11.451 6.678,11.097 C6.942,10.743 7.143,10.323 7.281,9.837 C7.419,9.351 7.488,8.826 7.488,8.262 Z M7.488,0 L8.568,0 L8.568,12.96 L7.488,12.96 L7.488,11.322 L7.452,11.322 C7.296,11.634 7.095,11.907 6.849,12.141 C6.603,12.375 6.333,12.57 6.039,12.726 C5.745,12.882 5.442,13.002 5.13,13.086 C4.818,13.17 4.512,13.212 4.212,13.212 C3.456,13.212 2.814,13.086 2.286,12.834 C1.758,12.582 1.323,12.237 0.981,11.799 C0.639,11.361 0.39,10.842 0.234,10.242 C0.078,9.642 0,9 0,8.316 C0,7.668 0.084,7.044 0.252,6.444 C0.42,5.844 0.675,5.319 1.017,4.869 C1.359,4.419 1.791,4.059 2.313,3.789 C2.835,3.519 3.45,3.384 4.158,3.384 C4.818,3.384 5.451,3.531 6.057,3.825 C6.663,4.119 7.14,4.554 7.488,5.13 L7.488,0 Z" id="Shape"></path>
                <path d="M17.503347,7.65 C17.503347,7.194 17.440347,6.765 17.314347,6.363 C17.188347,5.961 17.002347,5.613 16.756347,5.319 C16.510347,5.025 16.201347,4.791 15.829347,4.617 C15.457347,4.443 15.031347,4.356 14.551347,4.356 C14.071347,4.356 13.648347,4.446 13.282347,4.626 C12.916347,4.806 12.604347,5.046 12.346347,5.346 C12.088347,5.646 11.881347,5.994 11.725347,6.39 C11.569347,6.786 11.467347,7.206 11.419347,7.65 L17.503347,7.65 Z M11.419347,8.55 C11.419347,9.054 11.485347,9.531 11.617347,9.981 C11.749347,10.431 11.944347,10.821 12.202347,11.151 C12.460347,11.481 12.787347,11.745 13.183347,11.943 C13.579347,12.141 14.035347,12.24 14.551347,12.24 C15.259347,12.24 15.865347,12.054 16.369347,11.682 C16.873347,11.31 17.209347,10.782 17.377347,10.098 L18.583347,10.098 C18.451347,10.542 18.277347,10.953 18.061347,11.331 C17.845347,11.709 17.575347,12.039 17.251347,12.321 C16.927347,12.603 16.543347,12.822 16.099347,12.978 C15.655347,13.134 15.139347,13.212 14.551347,13.212 C13.807347,13.212 13.165347,13.086 12.625347,12.834 C12.085347,12.582 11.641347,12.237 11.293347,11.799 C10.945347,11.361 10.687347,10.845 10.519347,10.251 C10.351347,9.657 10.267347,9.018 10.267347,8.334 C10.267347,7.65 10.366347,7.008 10.564347,6.408 C10.762347,5.808 11.044347,5.283 11.410347,4.833 C11.776347,4.383 12.223347,4.029 12.751347,3.771 C13.279347,3.513 13.879347,3.384 14.551347,3.384 C15.835347,3.384 16.843347,3.825 17.575347,4.707 C18.307347,5.589 18.667347,6.87 18.655347,8.55 L11.419347,8.55 Z" id="Shape"></path>
                <polygon id="Path" points="19.238694 3.636 20.408694 3.636 23.432694 11.628 26.456694 3.636 27.626694 3.636 24.008694 12.96 22.802694 12.96"></polygon>
                <path d="M35.446041,7.65 C35.446041,7.194 35.383041,6.765 35.257041,6.363 C35.131041,5.961 34.945041,5.613 34.699041,5.319 C34.453041,5.025 34.144041,4.791 33.772041,4.617 C33.400041,4.443 32.974041,4.356 32.494041,4.356 C32.014041,4.356 31.591041,4.446 31.225041,4.626 C30.859041,4.806 30.547041,5.046 30.289041,5.346 C30.031041,5.646 29.824041,5.994 29.668041,6.39 C29.512041,6.786 29.410041,7.206 29.362041,7.65 L35.446041,7.65 Z M29.362041,8.55 C29.362041,9.054 29.428041,9.531 29.560041,9.981 C29.692041,10.431 29.887041,10.821 30.145041,11.151 C30.403041,11.481 30.730041,11.745 31.126041,11.943 C31.522041,12.141 31.978041,12.24 32.494041,12.24 C33.202041,12.24 33.808041,12.054 34.312041,11.682 C34.816041,11.31 35.152041,10.782 35.320041,10.098 L36.526041,10.098 C36.394041,10.542 36.220041,10.953 36.004041,11.331 C35.788041,11.709 35.518041,12.039 35.194041,12.321 C34.870041,12.603 34.486041,12.822 34.042041,12.978 C33.598041,13.134 33.082041,13.212 32.494041,13.212 C31.750041,13.212 31.108041,13.086 30.568041,12.834 C30.028041,12.582 29.584041,12.237 29.236041,11.799 C28.888041,11.361 28.630041,10.845 28.462041,10.251 C28.294041,9.657 28.210041,9.018 28.210041,8.334 C28.210041,7.65 28.309041,7.008 28.507041,6.408 C28.705041,5.808 28.987041,5.283 29.353041,4.833 C29.719041,4.383 30.166041,4.029 30.694041,3.771 C31.222041,3.513 31.822041,3.384 32.494041,3.384 C33.778041,3.384 34.786041,3.825 35.518041,4.707 C36.250041,5.589 36.610041,6.87 36.598041,8.55 L29.362041,8.55 Z" id="Shape"></path>
                <polygon id="Path" points="38.333388 12.96 38.333388 0 39.413388 0 39.413388 12.96"></polygon>
                <path d="M45.342735,13.212 C44.742735,13.2 44.181735,13.092 43.659735,12.888 C43.137735,12.684 42.681735,12.378 42.291735,11.97 C41.901735,11.562 41.592735,11.052 41.364735,10.44 C41.136735,9.828 41.022735,9.114 41.022735,8.298 C41.022735,7.614 41.112735,6.975 41.292735,6.381 C41.472735,5.787 41.742735,5.268 42.102735,4.824 C42.462735,4.38 42.912735,4.029 43.452735,3.771 C43.992735,3.513 44.622735,3.384 45.342735,3.384 C46.074735,3.384 46.710735,3.513 47.250735,3.771 C47.790735,4.029 48.240735,4.377 48.600735,4.815 C48.960735,5.253 49.227735,5.772 49.401735,6.372 C49.575735,6.972 49.662735,7.614 49.662735,8.298 C49.662735,9.042 49.560735,9.714 49.356735,10.314 C49.152735,10.914 48.861735,11.43 48.483735,11.862 C48.105735,12.294 47.649735,12.627 47.115735,12.861 C46.581735,13.095 45.990735,13.212 45.342735,13.212 Z M48.510735,8.298 C48.510735,7.746 48.450735,7.23 48.330735,6.75 C48.210735,6.27 48.024735,5.853 47.772735,5.499 C47.520735,5.145 47.196735,4.866 46.800735,4.662 C46.404735,4.458 45.918735,4.356 45.342735,4.356 C44.778735,4.356 44.295735,4.467 43.893735,4.689 C43.491735,4.911 43.164735,5.205 42.912735,5.571 C42.660735,5.937 42.474735,6.357 42.354735,6.831 C42.234735,7.305 42.174735,7.794 42.174735,8.298 C42.174735,8.874 42.243735,9.405 42.381735,9.891 C42.519735,10.377 42.720735,10.794 42.984735,11.142 C43.248735,11.49 43.578735,11.76 43.974735,11.952 C44.370735,12.144 44.826735,12.24 45.342735,12.24 C45.906735,12.24 46.389735,12.129 46.791735,11.907 C47.193735,11.685 47.520735,11.388 47.772735,11.016 C48.024735,10.644 48.210735,10.224 48.330735,9.756 C48.450735,9.288 48.510735,8.802 48.510735,8.298 Z" id="Shape"></path>
                <path d="M52.316082,8.334 C52.316082,8.862 52.388082,9.363 52.532082,9.837 C52.676082,10.311 52.883082,10.725 53.153082,11.079 C53.423082,11.433 53.753082,11.715 54.143082,11.925 C54.533082,12.135 54.974082,12.24 55.466082,12.24 C56.018082,12.24 56.501082,12.129 56.915082,11.907 C57.329082,11.685 57.668082,11.382 57.932082,10.998 C58.196082,10.614 58.388082,10.167 58.508082,9.657 C58.628082,9.147 58.676082,8.598 58.652082,8.01 C58.652082,7.422 58.571082,6.903 58.409082,6.453 C58.247082,6.003 58.022082,5.622 57.734082,5.31 C57.446082,4.998 57.110082,4.761 56.726082,4.599 C56.342082,4.437 55.922082,4.356 55.466082,4.356 C54.962082,4.356 54.512082,4.458 54.116082,4.662 C53.720082,4.866 53.390082,5.145 53.126082,5.499 C52.862082,5.853 52.661082,6.273 52.523082,6.759 C52.385082,7.245 52.316082,7.77 52.316082,8.334 Z M52.316082,16.632 L51.236082,16.632 L51.236082,3.636 L52.316082,3.636 L52.316082,5.274 L52.352082,5.274 C52.508082,4.974 52.709082,4.704 52.955082,4.464 C53.201082,4.224 53.471082,4.026 53.765082,3.87 C54.059082,3.714 54.362082,3.594 54.674082,3.51 C54.986082,3.426 55.292082,3.384 55.592082,3.384 C56.348082,3.384 56.990082,3.51 57.518082,3.762 C58.046082,4.014 58.481082,4.359 58.823082,4.797 C59.165082,5.235 59.414082,5.754 59.570082,6.354 C59.726082,6.954 59.804082,7.596 59.804082,8.28 C59.804082,8.928 59.720082,9.552 59.552082,10.152 C59.384082,10.752 59.129082,11.277 58.787082,11.727 C58.445082,12.177 58.013082,12.537 57.491082,12.807 C56.969082,13.077 56.354082,13.212 55.646082,13.212 C54.986082,13.212 54.353082,13.065 53.747082,12.771 C53.141082,12.477 52.664082,12.042 52.316082,11.466 L52.316082,16.632 Z" id="Shape"></path>
                <path d="M62.511429,12.96 L61.431429,12.96 L61.431429,3.636 L62.511429,3.636 L62.511429,5.04 L62.547429,5.04 C62.823429,4.5 63.219429,4.089 63.735429,3.807 C64.251429,3.525 64.815429,3.384 65.427429,3.384 C65.859429,3.384 66.225429,3.432 66.525429,3.528 C66.825429,3.624 67.080429,3.753 67.290429,3.915 C67.500429,4.077 67.674429,4.266 67.812429,4.482 C67.950429,4.698 68.067429,4.932 68.163429,5.184 C68.475429,4.572 68.892429,4.119 69.414429,3.825 C69.936429,3.531 70.533429,3.384 71.205429,3.384 C71.841429,3.384 72.348429,3.489 72.726429,3.699 C73.104429,3.909 73.395429,4.185 73.599429,4.527 C73.803429,4.869 73.938429,5.262 74.004429,5.706 C74.070429,6.15 74.103429,6.606 74.103429,7.074 L74.103429,12.96 L73.023429,12.96 L73.023429,6.516 C73.023429,5.844 72.882429,5.316 72.600429,4.932 C72.318429,4.548 71.793429,4.356 71.025429,4.356 C70.629429,4.356 70.248429,4.443 69.882429,4.617 C69.516429,4.791 69.195429,5.058 68.919429,5.418 C68.799429,5.574 68.700429,5.757 68.622429,5.967 C68.544429,6.177 68.481429,6.396 68.433429,6.624 C68.385429,6.852 68.352429,7.08 68.334429,7.308 C68.316429,7.536 68.307429,7.746 68.307429,7.938 L68.307429,12.96 L67.227429,12.96 L67.227429,6.516 C67.227429,5.844 67.086429,5.316 66.804429,4.932 C66.522429,4.548 65.997429,4.356 65.229429,4.356 C64.833429,4.356 64.452429,4.443 64.086429,4.617 C63.720429,4.791 63.399429,5.058 63.123429,5.418 C63.003429,5.574 62.904429,5.757 62.826429,5.967 C62.748429,6.177 62.685429,6.396 62.637429,6.624 C62.589429,6.852 62.556429,7.08 62.538429,7.308 C62.520429,7.536 62.511429,7.746 62.511429,7.938 L62.511429,12.96 Z" id="Path"></path>
                <path d="M82.786776,7.65 C82.786776,7.194 82.723776,6.765 82.597776,6.363 C82.471776,5.961 82.285776,5.613 82.039776,5.319 C81.793776,5.025 81.484776,4.791 81.112776,4.617 C80.740776,4.443 80.314776,4.356 79.834776,4.356 C79.354776,4.356 78.931776,4.446 78.565776,4.626 C78.199776,4.806 77.887776,5.046 77.629776,5.346 C77.371776,5.646 77.164776,5.994 77.008776,6.39 C76.852776,6.786 76.750776,7.206 76.702776,7.65 L82.786776,7.65 Z M76.702776,8.55 C76.702776,9.054 76.768776,9.531 76.900776,9.981 C77.032776,10.431 77.227776,10.821 77.485776,11.151 C77.743776,11.481 78.070776,11.745 78.466776,11.943 C78.862776,12.141 79.318776,12.24 79.834776,12.24 C80.542776,12.24 81.148776,12.054 81.652776,11.682 C82.156776,11.31 82.492776,10.782 82.660776,10.098 L83.866776,10.098 C83.734776,10.542 83.560776,10.953 83.344776,11.331 C83.128776,11.709 82.858776,12.039 82.534776,12.321 C82.210776,12.603 81.826776,12.822 81.382776,12.978 C80.938776,13.134 80.422776,13.212 79.834776,13.212 C79.090776,13.212 78.448776,13.086 77.908776,12.834 C77.368776,12.582 76.924776,12.237 76.576776,11.799 C76.228776,11.361 75.970776,10.845 75.802776,10.251 C75.634776,9.657 75.550776,9.018 75.550776,8.334 C75.550776,7.65 75.649776,7.008 75.847776,6.408 C76.045776,5.808 76.327776,5.283 76.693776,4.833 C77.059776,4.383 77.506776,4.029 78.034776,3.771 C78.562776,3.513 79.162776,3.384 79.834776,3.384 C81.118776,3.384 82.126776,3.825 82.858776,4.707 C83.590776,5.589 83.950776,6.87 83.938776,8.55 L76.702776,8.55 Z" id="Shape"></path>
                <path d="M86.592123,12.96 L85.512123,12.96 L85.512123,3.636 L86.592123,3.636 L86.592123,4.932 C87.024123,4.476 87.471123,4.104 87.933123,3.816 C88.395123,3.528 88.950123,3.384 89.598123,3.384 C90.174123,3.384 90.708123,3.483 91.200123,3.681 C91.692123,3.879 92.106123,4.224 92.442123,4.716 C92.670123,5.052 92.805123,5.397 92.847123,5.751 C92.889123,6.105 92.910123,6.474 92.910123,6.858 L92.910123,12.96 L91.830123,12.96 L91.830123,6.876 C91.830123,6.036 91.644123,5.406 91.272123,4.986 C90.900123,4.566 90.282123,4.356 89.418123,4.356 C89.082123,4.356 88.776123,4.407 88.500123,4.509 C88.224123,4.611 87.975123,4.746 87.753123,4.914 C87.531123,5.082 87.342123,5.274 87.186123,5.49 C87.030123,5.706 86.910123,5.934 86.826123,6.174 C86.718123,6.474 86.652123,6.762 86.628123,7.038 C86.604123,7.314 86.592123,7.614 86.592123,7.938 L86.592123,12.96 Z" id="Path"></path>
                <path d="M98.26347,12.996 C98.13147,13.02 97.95747,13.062 97.74147,13.122 C97.52547,13.182 97.28547,13.212 97.02147,13.212 C96.48147,13.212 96.07047,13.077 95.78847,12.807 C95.50647,12.537 95.36547,12.054 95.36547,11.358 L95.36547,4.536 L94.05147,4.536 L94.05147,3.636 L95.36547,3.636 L95.36547,1.044 L96.44547,1.044 L96.44547,3.636 L98.19147,3.636 L98.19147,4.536 L96.44547,4.536 L96.44547,10.926 C96.44547,11.154 96.45147,11.352 96.46347,11.52 C96.47547,11.688 96.51147,11.826 96.57147,11.934 C96.63147,12.042 96.72447,12.12 96.85047,12.168 C96.97647,12.216 97.15347,12.24 97.38147,12.24 C97.52547,12.24 97.67247,12.228 97.82247,12.204 C97.97247,12.18 98.11947,12.15 98.26347,12.114 L98.26347,12.996 Z" id="Path"></path>
            </g>
        </g>
    </g>
</svg>